<svg height="667" viewBox="0 0 375 667" width="375" xmlns="http://www.w3.org/2000/svg" xmlns:xlink="http://www.w3.org/1999/xlink"><defs><linearGradient id="a" x1="50%" x2="50%" y1="126.32%" y2="8.768%"><stop offset="0" stop-color="#040c21" stop-opacity="0"/><stop offset="1" stop-color="#040c21" stop-opacity=".239"/></linearGradient><linearGradient id="b" x1="50%" x2="50%" y1="100%" y2="8.768%"><stop offset="0" stop-color="#040e21" stop-opacity="0"/><stop offset="1" stop-color="#0e0419"/></linearGradient><path id="c" d="m323.517568 286.803678c21.775501-6.088529 45.128675-9.141895 68.32815-9.246556 23.199475.104661 46.570731 3.158027 68.386917 9.246556 52.103887-35.552823 74.995965-28.16741 74.995965-28.16741 14.859056 37.85081 5.510553 65.799797 2.676167 72.721062 17.503579 19.243938 28.095233 43.75732 28.095233 73.758569 0 105.543602-63.861844 128.782852-124.649712 135.585805 9.791516 8.527581 18.516182 25.250558 18.516182 50.887906 0 24.511866-.105479 49.648662-.316438 75.41039h-135.354381c-.168767-18.799509-.292329-35.853153-.370685-51.160935-75.945281 16.622867-91.970639-32.422099-91.970639-32.422099-12.045419-30.809412-29.24169-39.680228-30.262625-40.184748l-.042334-.020656c-.003556-.001704-.005345-.002549-.005345-.002549-23.529701-16.202404-.668013-16.6963 1.67698-16.705184l.158671.00013c.020683.000138.031337.000278.031337.000278 27.41263 1.938501 41.846754 28.317576 41.846754 28.317576 24.347695 42.009939 63.861844 29.864734 79.439668 22.843359 2.450139-17.760484 9.524804-29.882937 17.331798-36.745045-60.63417-6.948568-124.373959-30.510902-124.373959-135.804228 0-30.001249 10.663983-54.514631 28.126877-73.758569-2.834386-6.921265-12.178368-34.870252 2.644523-72.721062 0 0 22.923722-7.385413 75.090896 28.16741zm-26.655528 304.72426-.248176.00131c-3.343029.056426-5.968371 1.979609-5.968371 4.344794.037042 2.304057 2.741098 4.199027 6.084126 4.123792 3.324508-.042319 6.010043-1.98431 5.931329-4.325985 0-2.327568-2.722577-4.208431-6.047084-4.142601zm27.093349.462122c-.421352-2.322866-3.38007-3.695896-6.686057-3.112828-3.241163.606578-5.593321 2.952955-5.190491 5.294629.412091 2.26644 3.417112 3.677087 6.662905 3.075211 3.301356-.625387 5.611843-2.971764 5.213643-5.257012zm-48.751722-3.836961c-3.190231-1.010964-6.348049.04232-7.005543 2.280547-.638972 2.247631 1.430742 4.852626 4.593191 5.825973 3.16708.945134 6.311008-.06583 6.987022-2.289951.657493-2.261738-1.416851-4.847924-4.57467-5.816569zm-17.793985-10.612769c-2.407721-2.322866-5.690556-2.807189-7.241684-1.086199-1.537238 1.716288-.856593 4.965479 1.58817 7.255429 2.3892 2.341675 5.653514 2.802486 7.186121 1.086199 1.634472-1.697479.893635-4.970181-1.532607-7.255429zm-13.529541-15.376056c-1.754858-2.50625-4.514477-3.59715-6.250814-2.383994-1.750228 1.213157-1.750228 4.241346-.037042 6.766405 1.731707 2.525059 4.532998 3.658279 6.246184 2.449824 1.750228-1.236667 1.750228-4.264857.041672-6.832235zm-11.858026-15.423077c-1.833572-1.979608-4.361679-2.567378-5.736858-1.311902-1.352028 1.274285-1.009391 3.9216.819551 5.901208 1.768749 1.98431 4.37557 2.567378 5.709077 1.311902 1.3937-1.269583 1.037172-3.898089-.79177-5.901208zm-13.020215-11.209944c-2.023412-.973346-4.213512-.568961-4.815442.884006-.657493 1.415349.481544 3.338532 2.509586 4.264857 1.991.968644 4.17647.54545 4.792291-.865197.703796-1.415349-.453763-3.357341-2.486435-4.283666z"/></defs><g fill="none" fill-rule="evenodd" transform="translate(-191)"><g fill="#150e2d" fill-rule="nonzero"><path d="m478.570326 121.076233h-16.140652c-1.335639 0-2.421098 1.084036-2.421098 2.421525v16.143498c0 1.337488 1.085459 2.421524 2.421098 2.421524h16.140652c1.335639 0 2.421098-1.084036 2.421098-2.421524v-16.143498c0-1.337489-1.085459-2.421525-2.421098-2.421525zm0-24.2152465h-16.140652c-1.335639 0-2.421098 1.0840359-2.421098 2.4215247v16.1434978c0 1.337489 1.085459 2.421525 2.421098 2.421525h16.140652c1.335639 0 2.421098-1.084036 2.421098-2.421525v-16.1434978c0-1.3374888-1.085459-2.4215247-2.421098-2.4215247z"/><path d="m478.570326 145.29148h-16.140652c-1.335639 0-2.421098 1.084036-2.421098 2.421524v16.143498c0 1.337489 1.085459 2.421525 2.421098 2.421525h16.140652c1.335639 0 2.421098-1.084036 2.421098-2.421525v-16.143498c0-1.337488-1.085459-2.421524-2.421098-2.421524z" fill-opacity=".5"/><path d="m502.781304 145.29148h-16.140652c-1.335639 0-2.421098 1.084036-2.421098 2.421524v16.143498c0 1.337489 1.085459 2.421525 2.421098 2.421525h16.140652c1.335639 0 2.421097-1.084036 2.421097-2.421525v-16.143498c0-1.337488-1.085458-2.421524-2.421097-2.421524z"/><path d="m454.359348 121.076233h-16.140652c-1.335639 0-2.421097 1.084036-2.421097 2.421525v16.143498c0 1.337488 1.085458 2.421524 2.421097 2.421524h16.140652c1.335639 0 2.421098-1.084036 2.421098-2.421524v-16.143498c0-1.337489-1.085459-2.421525-2.421098-2.421525z" fill-opacity=".7"/><path d="m526.992281 121.076233h-16.140651c-1.335639 0-2.421098 1.084036-2.421098 2.421525v16.143498c0 1.337488 1.085459 2.421524 2.421098 2.421524h16.140651c1.335639 0 2.421098-1.084036 2.421098-2.421524v-16.143498c0-1.337489-1.085459-2.421525-2.421098-2.421525zm0-24.2152465h-16.140651c-1.335639 0-2.421098 1.0840359-2.421098 2.4215247v16.1434978c0 1.337489 1.085459 2.421525 2.421098 2.421525h16.140651c1.335639 0 2.421098-1.084036 2.421098-2.421525v-16.1434978c0-1.3374888-1.085459-2.4215247-2.421098-2.4215247z"/><path d="m430.14837 145.29148h-16.140651c-1.335639 0-2.421098 1.084036-2.421098 2.421524v16.143498c0 1.337489 1.085459 2.421525 2.421098 2.421525h16.140651c1.335639 0 2.421098-1.084036 2.421098-2.421525v-16.143498c0-1.337488-1.085459-2.421524-2.421098-2.421524zm121.054889 0h-16.140652c-1.335639 0-2.421098 1.084036-2.421098 2.421524v16.143498c0 1.337489 1.085459 2.421525 2.421098 2.421525h16.140652c1.335639 0 2.421098-1.084036 2.421098-2.421525v-16.143498c0-1.337488-1.085459-2.421524-2.421098-2.421524z" fill-opacity=".3"/><path d="m405.937393 96.8609865h-16.140652c-1.337253 0-2.421098 1.0840359-2.421098 2.4215247v16.1434978c0 1.337489 1.083845 2.421525 2.421098 2.421525h16.140652c1.335639 0 2.421098-1.084036 2.421098-2.421525v-16.1434978c0-1.3374888-1.085459-2.4215247-2.421098-2.4215247z" fill-opacity=".4"/><path d="m381.726415 96.8609865h-16.140652c-1.337253 0-2.421097 1.0840359-2.421097 2.4215247v16.1434978c0 1.337489 1.083844 2.421525 2.421097 2.421525h16.140652c1.337253 0 2.421098-1.084036 2.421098-2.421525v-16.1434978c0-1.3374888-1.083845-2.4215247-2.421098-2.4215247zm193.687822 0h-16.140652c-1.335639 0-2.421098 1.0840359-2.421098 2.4215247v16.1434978c0 1.337489 1.085459 2.421525 2.421098 2.421525h16.140652c1.335639 0 2.421097-1.084036 2.421097-2.421525v-16.1434978c0-1.3374888-1.085458-2.4215247-2.421097-2.4215247z" fill-opacity=".3"/><path d="m599.625214 96.8609865h-16.140651c-1.335639 0-2.421098 1.0840359-2.421098 2.4215247v16.1434978c0 1.337489 1.085459 2.421525 2.421098 2.421525h16.140651c1.335639 0 2.421098-1.084036 2.421098-2.421525v-16.1434978c0-1.3374888-1.085459-2.4215247-2.421098-2.4215247z" fill-opacity=".6"/><path d="m333.30446 145.29148h-16.140652c-1.337253 0-2.421098 1.084036-2.421098 2.421524v16.143498c0 1.337489 1.083845 2.421525 2.421098 2.421525h16.140652c1.337253 0 2.421097-1.084036 2.421097-2.421525v-16.143498c0-1.337488-1.083844-2.421524-2.421097-2.421524z" fill-opacity=".5"/><path d="m333.30446 121.076233h-16.140652c-1.337253 0-2.421098 1.084036-2.421098 2.421525v16.143498c0 1.337488 1.083845 2.421524 2.421098 2.421524h16.140652c1.337253 0 2.421097-1.084036 2.421097-2.421524v-16.143498c0-1.337489-1.083844-2.421525-2.421097-2.421525z" fill-opacity=".3"/><path d="m333.30446 96.8609865h-16.140652c-1.337253 0-2.421098 1.0840359-2.421098 2.4215247v16.1434978c0 1.337489 1.083845 2.421525 2.421098 2.421525h16.140652c1.337253 0 2.421097-1.084036 2.421097-2.421525v-16.1434978c0-1.3374888-1.083844-2.4215247-2.421097-2.4215247zm290.531732 0h-16.140652c-1.335639 0-2.421097 1.0840359-2.421097 2.4215247v16.1434978c0 1.337489 1.085458 2.421525 2.421097 2.421525h16.140652c1.335639 0 2.421098-1.084036 2.421098-2.421525v-16.1434978c0-1.3374888-1.085459-2.4215247-2.421098-2.4215247z"/><path d="m623.836192 145.29148h-16.140652c-1.335639 0-2.421097 1.084036-2.421097 2.421524v16.143498c0 1.337489 1.085458 2.421525 2.421097 2.421525h16.140652c1.335639 0 2.421098-1.084036 2.421098-2.421525v-16.143498c0-1.337488-1.085459-2.421524-2.421098-2.421524z" fill-opacity=".3"/><path d="m309.093482 145.29148h-16.140652c-1.337253 0-2.421098 1.084036-2.421098 2.421524v16.143498c0 1.337489 1.083845 2.421525 2.421098 2.421525h16.140652c1.337253 0 2.421098-1.084036 2.421098-2.421525v-16.143498c0-1.337488-1.083845-2.421524-2.421098-2.421524zm338.953688-72.6457401h-16.140652c-1.335639 0-2.421098 1.0840359-2.421098 2.4215247v16.1434977c0 1.3374888 1.085459 2.4215247 2.421098 2.4215247h16.140652c1.335639 0 2.421098-1.0840359 2.421098-2.4215247v-16.1434977c0-1.3374888-1.085459-2.4215247-2.421098-2.4215247zm0 24.2152466h-16.140652c-1.335639 0-2.421098 1.0840359-2.421098 2.4215247v16.1434978c0 1.337489 1.085459 2.421525 2.421098 2.421525h16.140652c1.335639 0 2.421098-1.084036 2.421098-2.421525v-16.1434978c0-1.3374888-1.085459-2.4215247-2.421098-2.4215247zm0 24.2152465h-16.140652c-1.335639 0-2.421098 1.084036-2.421098 2.421525v16.143498c0 1.337488 1.085459 2.421524 2.421098 2.421524h16.140652c1.335639 0 2.421098-1.084036 2.421098-2.421524v-16.143498c0-1.337489-1.085459-2.421525-2.421098-2.421525zm-72.632933 0h-16.140652c-1.335639 0-2.421098 1.084036-2.421098 2.421525v16.143498c0 1.337488 1.085459 2.421524 2.421098 2.421524h16.140652c1.335639 0 2.421097-1.084036 2.421097-2.421524v-16.143498c0-1.337489-1.085458-2.421525-2.421097-2.421525zm-217.8988 0h-16.140651c-1.335639 0-2.421098 1.084036-2.421098 2.421525v16.143498c0 1.337488 1.085459 2.421524 2.421098 2.421524h16.140651c1.335639 0 2.421098-1.084036 2.421098-2.421524v-16.143498c0-1.337489-1.085459-2.421525-2.421098-2.421525zm290.531733 24.215247h-16.140652c-1.335639 0-2.421098 1.084036-2.421098 2.421524v16.143498c0 1.337489 1.085459 2.421525 2.421098 2.421525h16.140652c1.335639 0 2.421098-1.084036 2.421098-2.421525v-16.143498c0-1.337488-1.085459-2.421524-2.421098-2.421524zm-72.632933 0h-16.140652c-1.335639 0-2.421098 1.084036-2.421098 2.421524v16.143498c0 1.337489 1.085459 2.421525 2.421098 2.421525h16.140652c1.335639 0 2.421097-1.084036 2.421097-2.421525v-16.143498c0-1.337488-1.085458-2.421524-2.421097-2.421524zm-217.8988 0h-16.140651c-1.335639 0-2.421098 1.084036-2.421098 2.421524v16.143498c0 1.337489 1.085459 2.421525 2.421098 2.421525h16.140651c1.335639 0 2.421098-1.084036 2.421098-2.421525v-16.143498c0-1.337488-1.085459-2.421524-2.421098-2.421524zm314.742711-121.0762334h-16.140652c-1.335639 0-2.421098 1.084157-2.421098 2.4215247v16.1434978c0 1.3374887 1.085459 2.4215246 2.421098 2.4215246h16.140652c1.335638 0 2.421097-1.0840359 2.421097-2.4215246v-16.1434978c0-1.3373677-1.085459-2.4215247-2.421097-2.4215247z"/><path d="m672.258148 96.8609865h-16.140652c-1.335639 0-2.421098 1.0840359-2.421098 2.4215247v16.1434978c0 1.337489 1.085459 2.421525 2.421098 2.421525h16.140652c1.335638 0 2.421097-1.084036 2.421097-2.421525v-16.1434978c0-1.3374888-1.085459-2.4215247-2.421097-2.4215247z" fill-opacity=".3"/><path d="m672.258148 121.076233h-16.140652c-1.335639 0-2.421098 1.084036-2.421098 2.421525v16.143498c0 1.337488 1.085459 2.421524 2.421098 2.421524h16.140652c1.335638 0 2.421097-1.084036 2.421097-2.421524v-16.143498c0-1.337489-1.085459-2.421525-2.421097-2.421525zm-72.632934 0h-16.140651c-1.335639 0-2.421098 1.084036-2.421098 2.421525v16.143498c0 1.337488 1.085459 2.421524 2.421098 2.421524h16.140651c1.335639 0 2.421098-1.084036 2.421098-2.421524v-16.143498c0-1.337489-1.085459-2.421525-2.421098-2.421525zm-217.898799 0h-16.140652c-1.335639 0-2.421097 1.084036-2.421097 2.421525v16.143498c0 1.337488 1.085458 2.421524 2.421097 2.421524h16.140652c1.335639 0 2.421098-1.084036 2.421098-2.421524v-16.143498c0-1.337489-1.085459-2.421525-2.421098-2.421525zm290.531733 24.215247h-16.140652c-1.335639 0-2.421098 1.084036-2.421098 2.421524v16.143498c0 1.337489 1.085459 2.421525 2.421098 2.421525h16.140652c1.335638 0 2.421097-1.084036 2.421097-2.421525v-16.143498c0-1.337488-1.085459-2.421524-2.421097-2.421524zm-72.632934 0h-16.140651c-1.335639 0-2.421098 1.084036-2.421098 2.421524v16.143498c0 1.337489 1.085459 2.421525 2.421098 2.421525h16.140651c1.335639 0 2.421098-1.084036 2.421098-2.421525v-16.143498c0-1.337488-1.085459-2.421524-2.421098-2.421524zm-217.898799 0h-16.140652c-1.335639 0-2.421097 1.084036-2.421097 2.421524v16.143498c0 1.337489 1.085458 2.421525 2.421097 2.421525h16.140652c1.335639 0 2.421098-1.084036 2.421098-2.421525v-16.143498c0-1.337488-1.085459-2.421524-2.421098-2.421524z"/><path d="m672.258148 48.4304933h-16.140652c-1.335639 0-2.421098 1.0840358-2.421098 2.4215246v16.1434978c0 1.3374888 1.085459 2.4215247 2.421098 2.4215247h16.140652c1.335638 0 2.421097-1.0840359 2.421097-2.4215247v-16.1434978c0-1.3374888-1.085459-2.4215246-2.421097-2.4215246z" fill-opacity=".3"/><path d="m284.882504 242.152466h-16.140652c-1.337253 0-2.421097 1.084036-2.421097 2.421525v16.143498c0 1.337489 1.083844 2.421524 2.421097 2.421524h16.140652c1.337253 0 2.421098-1.084035 2.421098-2.421524v-16.143498c0-1.337489-1.083845-2.421525-2.421098-2.421525zm0-96.860986h-16.140652c-1.337253 0-2.421097 1.084036-2.421097 2.421524v16.143498c0 1.337489 1.083844 2.421525 2.421097 2.421525h16.140652c1.337253 0 2.421098-1.084036 2.421098-2.421525v-16.143498c0-1.337488-1.083845-2.421524-2.421098-2.421524z"/><path d="m284.882504 48.4304933h-16.140652c-1.337253 0-2.421097 1.0840358-2.421097 2.4215246v16.1434978c0 1.3374888 1.083844 2.4215247 2.421097 2.4215247h16.140652c1.337253 0 2.421098-1.0840359 2.421098-2.4215247v-16.1434978c0-1.3374888-1.083845-2.4215246-2.421098-2.4215246z" fill-opacity=".2"/><path d="m284.882504 96.8609865h-16.140652c-1.337253 0-2.421097 1.0840359-2.421097 2.4215247v16.1434978c0 1.337489 1.083844 2.421525 2.421097 2.421525h16.140652c1.337253 0 2.421098-1.084036 2.421098-2.421525v-16.1434978c0-1.3374888-1.083845-2.4215247-2.421098-2.4215247z" fill-opacity=".5"/><path d="m284.882504 121.076233h-16.140652c-1.337253 0-2.421097 1.084036-2.421097 2.421525v16.143498c0 1.337488 1.083844 2.421524 2.421097 2.421524h16.140652c1.337253 0 2.421098-1.084036 2.421098-2.421524v-16.143498c0-1.337489-1.083845-2.421525-2.421098-2.421525zm0-48.4304931h-16.140652c-1.337253 0-2.421097 1.0840359-2.421097 2.4215247v16.1434977c0 1.3374888 1.083844 2.4215247 2.421097 2.4215247h16.140652c1.337253 0 2.421098-1.0840359 2.421098-2.4215247v-16.1434977c0-1.3374888-1.083845-2.4215247-2.421098-2.4215247zm-24.210977 169.5067261h-16.140652c-1.337253 0-2.421098 1.084036-2.421098 2.421525v16.143498c0 1.337489 1.083845 2.421524 2.421098 2.421524h16.140652c1.337253 0 2.421097-1.084035 2.421097-2.421524v-16.143498c0-1.337489-1.083844-2.421525-2.421097-2.421525zm0-72.64574h-16.140652c-1.337253 0-2.421098 1.084036-2.421098 2.421525v16.143498c0 1.337489 1.083845 2.421525 2.421098 2.421525h16.140652c1.337253 0 2.421097-1.084036 2.421097-2.421525v-16.143498c0-1.337489-1.083844-2.421525-2.421097-2.421525z"/><path d="m260.671527 193.721973h-16.140652c-1.337253 0-2.421098 1.084036-2.421098 2.421525v16.143498c0 1.337488 1.083845 2.421524 2.421098 2.421524h16.140652c1.337253 0 2.421097-1.084036 2.421097-2.421524v-16.143498c0-1.337489-1.083844-2.421525-2.421097-2.421525z" fill-opacity=".5"/><path d="m260.671527 96.8609865h-16.140652c-1.337253 0-2.421098 1.0840359-2.421098 2.4215247v16.1434978c0 1.337489 1.083845 2.421525 2.421098 2.421525h16.140652c1.337253 0 2.421097-1.084036 2.421097-2.421525v-16.1434978c0-1.3374888-1.083844-2.4215247-2.421097-2.4215247zm0-24.2152466h-16.140652c-1.337253 0-2.421098 1.0840359-2.421098 2.4215247v16.1434977c0 1.3374888 1.083845 2.4215247 2.421098 2.4215247h16.140652c1.337253 0 2.421097-1.0840359 2.421097-2.4215247v-16.1434977c0-1.3374888-1.083844-2.4215247-2.421097-2.4215247zm0 48.4304931h-16.140652c-1.337253 0-2.421098 1.084036-2.421098 2.421525v16.143498c0 1.337488 1.083845 2.421524 2.421098 2.421524h16.140652c1.337253 0 2.421097-1.084036 2.421097-2.421524v-16.143498c0-1.337489-1.083844-2.421525-2.421097-2.421525zm435.797598 72.64574h-16.140652c-1.335639 0-2.421097 1.084036-2.421097 2.421525v16.143498c0 1.337488 1.085458 2.421524 2.421097 2.421524h16.140652c1.335639 0 2.421098-1.084036 2.421098-2.421524v-16.143498c0-1.337489-1.085459-2.421525-2.421098-2.421525zm0 48.430493h-16.140652c-1.335639 0-2.421097 1.084036-2.421097 2.421525v16.143498c0 1.337489 1.085458 2.421524 2.421097 2.421524h16.140652c1.335639 0 2.421098-1.084035 2.421098-2.421524v-16.143498c0-1.337489-1.085459-2.421525-2.421098-2.421525zm0-72.64574h-16.140652c-1.335639 0-2.421097 1.084036-2.421097 2.421525v16.143498c0 1.337489 1.085458 2.421525 2.421097 2.421525h16.140652c1.335639 0 2.421098-1.084036 2.421098-2.421525v-16.143498c0-1.337489-1.085459-2.421525-2.421098-2.421525zm0-72.6457395h-16.140652c-1.335639 0-2.421097 1.0840359-2.421097 2.4215247v16.1434978c0 1.337489 1.085458 2.421525 2.421097 2.421525h16.140652c1.335639 0 2.421098-1.084036 2.421098-2.421525v-16.1434978c0-1.3374888-1.085459-2.4215247-2.421098-2.4215247z"/><path d="m696.469125 48.4304933h-16.140652c-1.335639 0-2.421097 1.0840358-2.421097 2.4215246v16.1434978c0 1.3374888 1.085458 2.4215247 2.421097 2.4215247h16.140652c1.335639 0 2.421098-1.0840359 2.421098-2.4215247v-16.1434978c0-1.3374888-1.085459-2.4215246-2.421098-2.4215246z" fill-opacity=".8"/><path d="m696.469125 72.6457399h-16.140652c-1.335639 0-2.421097 1.0840359-2.421097 2.4215247v16.1434977c0 1.3374888 1.085458 2.4215247 2.421097 2.4215247h16.140652c1.335639 0 2.421098-1.0840359 2.421098-2.4215247v-16.1434977c0-1.3374888-1.085459-2.4215247-2.421098-2.4215247z"/><path d="m236.460549 48.4304933h-16.140652c-1.337253 0-2.421098 1.0840358-2.421098 2.4215246v16.1434978c0 1.3374888 1.083845 2.4215247 2.421098 2.4215247h16.140652c1.337253 0 2.421098-1.0840359 2.421098-2.4215247v-16.1434978c0-1.3374888-1.083845-2.4215246-2.421098-2.4215246z" fill-opacity=".6"/><path d="m236.460549 169.506726h-16.140652c-1.337253 0-2.421098 1.084036-2.421098 2.421525v16.143498c0 1.337489 1.083845 2.421525 2.421098 2.421525h16.140652c1.337253 0 2.421098-1.084036 2.421098-2.421525v-16.143498c0-1.337489-1.083845-2.421525-2.421098-2.421525z" fill-opacity=".5"/><path d="m236.460549 217.93722h-16.140652c-1.337253 0-2.421098 1.084036-2.421098 2.421524v16.143498c0 1.337489 1.083845 2.421525 2.421098 2.421525h16.140652c1.337253 0 2.421098-1.084036 2.421098-2.421525v-16.143498c0-1.337488-1.083845-2.421524-2.421098-2.421524z" fill-opacity=".7"/><path d="m236.460549 145.29148h-16.140652c-1.337253 0-2.421098 1.084036-2.421098 2.421524v16.143498c0 1.337489 1.083845 2.421525 2.421098 2.421525h16.140652c1.337253 0 2.421098-1.084036 2.421098-2.421525v-16.143498c0-1.337488-1.083845-2.421524-2.421098-2.421524z" fill-opacity=".5"/><path d="m236.460549 193.721973h-16.140652c-1.337253 0-2.421098 1.084036-2.421098 2.421525v16.143498c0 1.337488 1.083845 2.421524 2.421098 2.421524h16.140652c1.337253 0 2.421098-1.084036 2.421098-2.421524v-16.143498c0-1.337489-1.083845-2.421525-2.421098-2.421525zm0-96.8609865h-16.140652c-1.337253 0-2.421098 1.0840359-2.421098 2.4215247v16.1434978c0 1.337489 1.083845 2.421525 2.421098 2.421525h16.140652c1.337253 0 2.421098-1.084036 2.421098-2.421525v-16.1434978c0-1.3374888-1.083845-2.4215247-2.421098-2.4215247zm484.219554 193.7219735h-16.140652c-1.335639 0-2.421098 1.084036-2.421098 2.421524v16.143498c0 1.337489 1.085459 2.421525 2.421098 2.421525h16.140652c1.335639 0 2.421098-1.084036 2.421098-2.421525v-16.143498c0-1.337488-1.085459-2.421524-2.421098-2.421524z"/><path d="m720.680103 314.798206h-16.140652c-1.335639 0-2.421098 1.084036-2.421098 2.421525v16.143498c0 1.337488 1.085459 2.421524 2.421098 2.421524h16.140652c1.335639 0 2.421098-1.084036 2.421098-2.421524v-16.143498c0-1.337489-1.085459-2.421525-2.421098-2.421525z" fill-opacity=".3"/><path d="m720.680103 266.367713h-16.140652c-1.335639 0-2.421098 1.084036-2.421098 2.421525v16.143497c0 1.337489 1.085459 2.421525 2.421098 2.421525h16.140652c1.335639 0 2.421098-1.084036 2.421098-2.421525v-16.143497c0-1.337489-1.085459-2.421525-2.421098-2.421525zm0-121.076233h-16.140652c-1.335639 0-2.421098 1.084036-2.421098 2.421524v16.143498c0 1.337489 1.085459 2.421525 2.421098 2.421525h16.140652c1.335639 0 2.421098-1.084036 2.421098-2.421525v-16.143498c0-1.337488-1.085459-2.421524-2.421098-2.421524zm0 24.215246h-16.140652c-1.335639 0-2.421098 1.084036-2.421098 2.421525v16.143498c0 1.337489 1.085459 2.421525 2.421098 2.421525h16.140652c1.335639 0 2.421098-1.084036 2.421098-2.421525v-16.143498c0-1.337489-1.085459-2.421525-2.421098-2.421525z"/><path d="m720.680103 193.721973h-16.140652c-1.335639 0-2.421098 1.084036-2.421098 2.421525v16.143498c0 1.337488 1.085459 2.421524 2.421098 2.421524h16.140652c1.335639 0 2.421098-1.084036 2.421098-2.421524v-16.143498c0-1.337489-1.085459-2.421525-2.421098-2.421525zm0-169.5067264h-16.140652c-1.335639 0-2.421098 1.084157-2.421098 2.4215247v16.1434978c0 1.3374887 1.085459 2.4215246 2.421098 2.4215246h16.140652c1.335639 0 2.421098-1.0840359 2.421098-2.4215246v-16.1434978c0-1.3373677-1.085459-2.4215247-2.421098-2.4215247z" fill-opacity=".5"/><path d="m720.680103 48.4304933h-16.140652c-1.335639 0-2.421098 1.0840358-2.421098 2.4215246v16.1434978c0 1.3374888 1.085459 2.4215247 2.421098 2.4215247h16.140652c1.335639 0 2.421098-1.0840359 2.421098-2.4215247v-16.1434978c0-1.3374888-1.085459-2.4215246-2.421098-2.4215246z" fill-opacity=".4"/><path d="m720.680103 72.6457399h-16.140652c-1.335639 0-2.421098 1.0840359-2.421098 2.4215247v16.1434977c0 1.3374888 1.085459 2.4215247 2.421098 2.4215247h16.140652c1.335639 0 2.421098-1.0840359 2.421098-2.4215247v-16.1434977c0-1.3374888-1.085459-2.4215247-2.421098-2.4215247z"/><path d="m744.891081 169.506726h-16.140652c-1.335639 0-2.421098 1.084036-2.421098 2.421525v16.143498c0 1.337489 1.085459 2.421525 2.421098 2.421525h16.140652c1.335639 0 2.421097-1.084036 2.421097-2.421525v-16.143498c0-1.337489-1.085458-2.421525-2.421097-2.421525z" fill-opacity=".3"/><path d="m744.891081 290.58296h-16.140652c-1.335639 0-2.421098 1.084036-2.421098 2.421524v16.143498c0 1.337489 1.085459 2.421525 2.421098 2.421525h16.140652c1.335639 0 2.421097-1.084036 2.421097-2.421525v-16.143498c0-1.337488-1.085458-2.421524-2.421097-2.421524zm0-24.215247h-16.140652c-1.335639 0-2.421098 1.084036-2.421098 2.421525v16.143497c0 1.337489 1.085459 2.421525 2.421098 2.421525h16.140652c1.335639 0 2.421097-1.084036 2.421097-2.421525v-16.143497c0-1.337489-1.085458-2.421525-2.421097-2.421525z" fill-opacity=".5"/><path d="m744.891081 314.798206h-16.140652c-1.335639 0-2.421098 1.084036-2.421098 2.421525v16.143498c0 1.337488 1.085459 2.421524 2.421098 2.421524h16.140652c1.335639 0 2.421097-1.084036 2.421097-2.421524v-16.143498c0-1.337489-1.085458-2.421525-2.421097-2.421525z"/><path d="m744.891081 242.152466h-16.140652c-1.335639 0-2.421098 1.084036-2.421098 2.421525v16.143498c0 1.337489 1.085459 2.421524 2.421098 2.421524h16.140652c1.335639 0 2.421097-1.084035 2.421097-2.421524v-16.143498c0-1.337489-1.085458-2.421525-2.421097-2.421525z" fill-opacity=".7"/><path d="m744.891081 217.93722h-16.140652c-1.335639 0-2.421098 1.084036-2.421098 2.421524v16.143498c0 1.337489 1.085459 2.421525 2.421098 2.421525h16.140652c1.335639 0 2.421097-1.084036 2.421097-2.421525v-16.143498c0-1.337488-1.085458-2.421524-2.421097-2.421524z" fill-opacity=".2"/><path d="m744.891081 48.4304933h-16.140652c-1.335639 0-2.421098 1.0840358-2.421098 2.4215246v16.1434978c0 1.3374888 1.085459 2.4215247 2.421098 2.4215247h16.140652c1.335639 0 2.421097-1.0840359 2.421097-2.4215247v-16.1434978c0-1.3374888-1.085458-2.4215246-2.421097-2.4215246zm0-48.4304933h-16.140652c-1.335639 0-2.421098 1.08415291-2.421098 2.42152466v16.14349774c0 1.3373677 1.085459 2.4215247 2.421098 2.4215247h16.140652c1.335639 0 2.421097-1.084157 2.421097-2.4215247v-16.14349774c0-1.33737175-1.085458-2.42152466-2.421097-2.42152466z"/><path d="m744.891081 24.2152466h-16.140652c-1.335639 0-2.421098 1.084157-2.421098 2.4215247v16.1434978c0 1.3374887 1.085459 2.4215246 2.421098 2.4215246h16.140652c1.335639 0 2.421097-1.0840359 2.421097-2.4215246v-16.1434978c0-1.3373677-1.085458-2.4215247-2.421097-2.4215247z" fill-opacity=".5"/><path d="m744.891081 121.076233h-16.140652c-1.335639 0-2.421098 1.084036-2.421098 2.421525v16.143498c0 1.337488 1.085459 2.421524 2.421098 2.421524h16.140652c1.335639 0 2.421097-1.084036 2.421097-2.421524v-16.143498c0-1.337489-1.085458-2.421525-2.421097-2.421525z"/><path d="m212.249571 193.721973h-16.140652c-1.337253 0-2.421097 1.084036-2.421097 2.421525v16.143498c0 1.337488 1.083844 2.421524 2.421097 2.421524h16.140652c1.337253 0 2.421098-1.084036 2.421098-2.421524v-16.143498c0-1.337489-1.083845-2.421525-2.421098-2.421525z" fill-opacity=".5"/><path d="m212.249571 290.58296h-16.140652c-1.337253 0-2.421097 1.084036-2.421097 2.421524v16.143498c0 1.337489 1.083844 2.421525 2.421097 2.421525h16.140652c1.337253 0 2.421098-1.084036 2.421098-2.421525v-16.143498c0-1.337488-1.083845-2.421524-2.421098-2.421524z" fill-opacity=".3"/><path d="m212.249571 314.798206h-16.140652c-1.337253 0-2.421097 1.084036-2.421097 2.421525v16.143498c0 1.337488 1.083844 2.421524 2.421097 2.421524h16.140652c1.337253 0 2.421098-1.084036 2.421098-2.421524v-16.143498c0-1.337489-1.083845-2.421525-2.421098-2.421525z"/><path d="m212.249571 242.152466h-16.140652c-1.337253 0-2.421097 1.084036-2.421097 2.421525v16.143498c0 1.337489 1.083844 2.421524 2.421097 2.421524h16.140652c1.337253 0 2.421098-1.084035 2.421098-2.421524v-16.143498c0-1.337489-1.083845-2.421525-2.421098-2.421525z" fill-opacity=".5"/><path d="m212.249571 266.367713h-16.140652c-1.337253 0-2.421097 1.084036-2.421097 2.421525v16.143497c0 1.337489 1.083844 2.421525 2.421097 2.421525h16.140652c1.337253 0 2.421098-1.084036 2.421098-2.421525v-16.143497c0-1.337489-1.083845-2.421525-2.421098-2.421525z"/><path d="m212.249571 96.8609865h-16.140652c-1.337253 0-2.421097 1.0840359-2.421097 2.4215247v16.1434978c0 1.337489 1.083844 2.421525 2.421097 2.421525h16.140652c1.337253 0 2.421098-1.084036 2.421098-2.421525v-16.1434978c0-1.3374888-1.083845-2.4215247-2.421098-2.4215247zm0 24.2152465h-16.140652c-1.337253 0-2.421097 1.084036-2.421097 2.421525v16.143498c0 1.337488 1.083844 2.421524 2.421097 2.421524h16.140652c1.337253 0 2.421098-1.084036 2.421098-2.421524v-16.143498c0-1.337489-1.083845-2.421525-2.421098-2.421525z" fill-opacity=".5"/><path d="m212.249571 72.6457399h-16.140652c-1.337253 0-2.421097 1.0840359-2.421097 2.4215247v16.1434977c0 1.3374888 1.083844 2.4215247 2.421097 2.4215247h16.140652c1.337253 0 2.421098-1.0840359 2.421098-2.4215247v-16.1434977c0-1.3374888-1.083845-2.4215247-2.421098-2.4215247z"/><path d="m212.249571 48.4304933h-16.140652c-1.337253 0-2.421097 1.0840358-2.421097 2.4215246v16.1434978c0 1.3374888 1.083844 2.4215247 2.421097 2.4215247h16.140652c1.337253 0 2.421098-1.0840359 2.421098-2.4215247v-16.1434978c0-1.3374888-1.083845-2.4215246-2.421098-2.4215246z" fill-opacity=".2"/><path d="m212.249571 24.2152466h-16.140652c-1.337253 0-2.421097 1.084157-2.421097 2.4215247v16.1434978c0 1.3374887 1.083844 2.4215246 2.421097 2.4215246h16.140652c1.337253 0 2.421098-1.0840359 2.421098-2.4215246v-16.1434978c0-1.3373677-1.083845-2.4215247-2.421098-2.4215247z"/><path d="m212.249571 0h-16.140652c-1.337253 0-2.421097 1.08415291-2.421097 2.42152466v16.14349774c0 1.3373677 1.083844 2.4215247 2.421097 2.4215247h16.140652c1.337253 0 2.421098-1.084157 2.421098-2.4215247v-16.14349774c0-1.33737175-1.083845-2.42152466-2.421098-2.42152466z" fill-opacity=".3"/><path d="m769.102058 339.013453h-16.140651c-1.335639 0-2.421098 1.084036-2.421098 2.421525v16.143497c0 1.337489 1.085459 2.421525 2.421098 2.421525h16.140651c1.335639 0 2.421098-1.084036 2.421098-2.421525v-16.143497c0-1.337489-1.085459-2.421525-2.421098-2.421525z" fill-opacity=".5"/><path d="m769.102058 96.8609865h-16.140651c-1.335639 0-2.421098 1.0840359-2.421098 2.4215247v16.1434978c0 1.337489 1.085459 2.421525 2.421098 2.421525h16.140651c1.335639 0 2.421098-1.084036 2.421098-2.421525v-16.1434978c0-1.3374888-1.085459-2.4215247-2.421098-2.4215247zm0-48.4304932h-16.140651c-1.335639 0-2.421098 1.0840358-2.421098 2.4215246v16.1434978c0 1.3374888 1.085459 2.4215247 2.421098 2.4215247h16.140651c1.335639 0 2.421098-1.0840359 2.421098-2.4215247v-16.1434978c0-1.3374888-1.085459-2.4215246-2.421098-2.4215246z"/><path d="m769.102058 24.2152466h-16.140651c-1.335639 0-2.421098 1.084157-2.421098 2.4215247v16.1434978c0 1.3374887 1.085459 2.4215246 2.421098 2.4215246h16.140651c1.335639 0 2.421098-1.0840359 2.421098-2.4215246v-16.1434978c0-1.3373677-1.085459-2.4215247-2.421098-2.4215247zm0 48.4304933h-16.140651c-1.335639 0-2.421098 1.0840359-2.421098 2.4215247v16.1434977c0 1.3374888 1.085459 2.4215247 2.421098 2.4215247h16.140651c1.335639 0 2.421098-1.0840359 2.421098-2.4215247v-16.1434977c0-1.3374888-1.085459-2.4215247-2.421098-2.4215247z" fill-opacity=".5"/><path d="m769.102058 121.076233h-16.140651c-1.335639 0-2.421098 1.084036-2.421098 2.421525v16.143498c0 1.337488 1.085459 2.421524 2.421098 2.421524h16.140651c1.335639 0 2.421098-1.084036 2.421098-2.421524v-16.143498c0-1.337489-1.085459-2.421525-2.421098-2.421525zm0 72.64574h-16.140651c-1.335639 0-2.421098 1.084036-2.421098 2.421525v16.143498c0 1.337488 1.085459 2.421524 2.421098 2.421524h16.140651c1.335639 0 2.421098-1.084036 2.421098-2.421524v-16.143498c0-1.337489-1.085459-2.421525-2.421098-2.421525zm0 24.215247h-16.140651c-1.335639 0-2.421098 1.084036-2.421098 2.421524v16.143498c0 1.337489 1.085459 2.421525 2.421098 2.421525h16.140651c1.335639 0 2.421098-1.084036 2.421098-2.421525v-16.143498c0-1.337488-1.085459-2.421524-2.421098-2.421524z"/><path d="m769.102058 242.152466h-16.140651c-1.335639 0-2.421098 1.084036-2.421098 2.421525v16.143498c0 1.337489 1.085459 2.421524 2.421098 2.421524h16.140651c1.335639 0 2.421098-1.084035 2.421098-2.421524v-16.143498c0-1.337489-1.085459-2.421525-2.421098-2.421525z" fill-opacity=".5"/><path d="m769.102058 266.367713h-16.140651c-1.335639 0-2.421098 1.084036-2.421098 2.421525v16.143497c0 1.337489 1.085459 2.421525 2.421098 2.421525h16.140651c1.335639 0 2.421098-1.084036 2.421098-2.421525v-16.143497c0-1.337489-1.085459-2.421525-2.421098-2.421525z"/><path d="m769.102058 290.58296h-16.140651c-1.335639 0-2.421098 1.084036-2.421098 2.421524v16.143498c0 1.337489 1.085459 2.421525 2.421098 2.421525h16.140651c1.335639 0 2.421098-1.084036 2.421098-2.421525v-16.143498c0-1.337488-1.085459-2.421524-2.421098-2.421524z" fill-opacity=".3"/><path d="m188.038593 121.076233h-16.140651c-1.337253 0-2.421098 1.084036-2.421098 2.421525v16.143498c0 1.337488 1.083845 2.421524 2.421098 2.421524h16.140651c1.337253 0 2.421098-1.084036 2.421098-2.421524v-16.143498c0-1.337489-1.083845-2.421525-2.421098-2.421525zm0 48.430493h-16.140651c-1.337253 0-2.421098 1.084036-2.421098 2.421525v16.143498c0 1.337489 1.083845 2.421525 2.421098 2.421525h16.140651c1.337253 0 2.421098-1.084036 2.421098-2.421525v-16.143498c0-1.337489-1.083845-2.421525-2.421098-2.421525z" fill-opacity=".5"/><path d="m188.038593 145.29148h-16.140651c-1.337253 0-2.421098 1.084036-2.421098 2.421524v16.143498c0 1.337489 1.083845 2.421525 2.421098 2.421525h16.140651c1.337253 0 2.421098-1.084036 2.421098-2.421525v-16.143498c0-1.337488-1.083845-2.421524-2.421098-2.421524z" fill-opacity=".8"/><path d="m188.038593 290.58296h-16.140651c-1.337253 0-2.421098 1.084036-2.421098 2.421524v16.143498c0 1.337489 1.083845 2.421525 2.421098 2.421525h16.140651c1.337253 0 2.421098-1.084036 2.421098-2.421525v-16.143498c0-1.337488-1.083845-2.421524-2.421098-2.421524z"/><path d="m188.038593 314.798206h-16.140651c-1.337253 0-2.421098 1.084036-2.421098 2.421525v16.143498c0 1.337488 1.083845 2.421524 2.421098 2.421524h16.140651c1.337253 0 2.421098-1.084036 2.421098-2.421524v-16.143498c0-1.337489-1.083845-2.421525-2.421098-2.421525z" fill-opacity=".3"/><path d="m188.038593 339.013453h-16.140651c-1.337253 0-2.421098 1.084036-2.421098 2.421525v16.143497c0 1.337489 1.083845 2.421525 2.421098 2.421525h16.140651c1.337253 0 2.421098-1.084036 2.421098-2.421525v-16.143497c0-1.337489-1.083845-2.421525-2.421098-2.421525z"/><path d="m188.038593 242.152466h-16.140651c-1.337253 0-2.421098 1.084036-2.421098 2.421525v16.143498c0 1.337489 1.083845 2.421524 2.421098 2.421524h16.140651c1.337253 0 2.421098-1.084035 2.421098-2.421524v-16.143498c0-1.337489-1.083845-2.421525-2.421098-2.421525z" fill-opacity=".5"/><path d="m188.038593 266.367713h-16.140651c-1.337253 0-2.421098 1.084036-2.421098 2.421525v16.143497c0 1.337489 1.083845 2.421525 2.421098 2.421525h16.140651c1.337253 0 2.421098-1.084036 2.421098-2.421525v-16.143497c0-1.337489-1.083845-2.421525-2.421098-2.421525zm0-193.7219731h-16.140651c-1.337253 0-2.421098 1.0840359-2.421098 2.4215247v16.1434977c0 1.3374888 1.083845 2.4215247 2.421098 2.4215247h16.140651c1.337253 0 2.421098-1.0840359 2.421098-2.4215247v-16.1434977c0-1.3374888-1.083845-2.4215247-2.421098-2.4215247z"/><path d="m188.038593 48.4304933h-16.140651c-1.337253 0-2.421098 1.0840358-2.421098 2.4215246v16.1434978c0 1.3374888 1.083845 2.4215247 2.421098 2.4215247h16.140651c1.337253 0 2.421098-1.0840359 2.421098-2.4215247v-16.1434978c0-1.3374888-1.083845-2.4215246-2.421098-2.4215246z" fill-opacity=".2"/><path d="m188.038593 24.2152466h-16.140651c-1.337253 0-2.421098 1.084157-2.421098 2.4215247v16.1434978c0 1.3374887 1.083845 2.4215246 2.421098 2.4215246h16.140651c1.337253 0 2.421098-1.0840359 2.421098-2.4215246v-16.1434978c0-1.3373677-1.083845-2.4215247-2.421098-2.4215247z"/><path d="m793.313036 0h-16.140652c-1.335639 0-2.421098 1.08415291-2.421098 2.42152466v16.14349774c0 1.3373677 1.085459 2.4215247 2.421098 2.4215247h16.140652c1.335639 0 2.421098-1.084157 2.421098-2.4215247v-16.14349774c0-1.33737175-1.085459-2.42152466-2.421098-2.42152466z" fill-opacity=".5"/><path d="m777.172384 263.139013h16.140652c1.335639 0 2.421098-1.084035 2.421098-2.421524v-16.143498c0-1.337489-1.085459-2.421525-2.421098-2.421525h-16.140652c-1.335639 0-2.421098 1.084036-2.421098 2.421525v16.143498c0 1.337489 1.085459 2.421524 2.421098 2.421524zm0 48.430494h16.140652c1.335639 0 2.421098-1.084036 2.421098-2.421525v-16.143498c0-1.337488-1.085459-2.421524-2.421098-2.421524h-16.140652c-1.335639 0-2.421098 1.084036-2.421098 2.421524v16.143498c0 1.337489 1.085459 2.421525 2.421098 2.421525z"/><path d="m777.172384 335.784753h16.140652c1.335639 0 2.421098-1.084036 2.421098-2.421524v-16.143498c0-1.337489-1.085459-2.421525-2.421098-2.421525h-16.140652c-1.335639 0-2.421098 1.084036-2.421098 2.421525v16.143498c0 1.337488 1.085459 2.421524 2.421098 2.421524zm0-48.430493h16.140652c1.335639 0 2.421098-1.084036 2.421098-2.421525v-16.143497c0-1.337489-1.085459-2.421525-2.421098-2.421525h-16.140652c-1.335639 0-2.421098 1.084036-2.421098 2.421525v16.143497c0 1.337489 1.085459 2.421525 2.421098 2.421525z" fill-opacity=".5"/><path d="m777.172384 238.923767h16.140652c1.335639 0 2.421098-1.084036 2.421098-2.421525v-16.143498c0-1.337488-1.085459-2.421524-2.421098-2.421524h-16.140652c-1.335639 0-2.421098 1.084036-2.421098 2.421524v16.143498c0 1.337489 1.085459 2.421525 2.421098 2.421525zm0-72.64574h16.140652c1.335639 0 2.421098-1.084036 2.421098-2.421525v-16.143498c0-1.337488-1.085459-2.421524-2.421098-2.421524h-16.140652c-1.335639 0-2.421098 1.084036-2.421098 2.421524v16.143498c0 1.337489 1.085459 2.421525 2.421098 2.421525zm0-24.215247h16.140652c1.335639 0 2.421098-1.084036 2.421098-2.421524v-16.143498c0-1.337489-1.085459-2.421525-2.421098-2.421525h-16.140652c-1.335639 0-2.421098 1.084036-2.421098 2.421525v16.143498c0 1.337488 1.085459 2.421524 2.421098 2.421524z"/><path d="m777.172384 117.847534h16.140652c1.335639 0 2.421098-1.084036 2.421098-2.421525v-16.1434978c0-1.3374888-1.085459-2.4215247-2.421098-2.4215247h-16.140652c-1.335639 0-2.421098 1.0840359-2.421098 2.4215247v16.1434978c0 1.337489 1.085459 2.421525 2.421098 2.421525z" fill-opacity=".5"/><path d="m777.172384 93.632287h16.140652c1.335639 0 2.421098-1.0840359 2.421098-2.4215247v-16.1434977c0-1.3374888-1.085459-2.4215247-2.421098-2.4215247h-16.140652c-1.335639 0-2.421098 1.0840359-2.421098 2.4215247v16.1434977c0 1.3374888 1.085459 2.4215247 2.421098 2.4215247z"/><path d="m793.313036 48.4304933h-16.140652c-1.335639 0-2.421098 1.0840358-2.421098 2.4215246v16.1434978c0 1.3374888 1.085459 2.4215247 2.421098 2.4215247h16.140652c1.335639 0 2.421098-1.0840359 2.421098-2.4215247v-16.1434978c0-1.3374888-1.085459-2.4215246-2.421098-2.4215246z" fill-opacity=".3"/><path d="m147.686964 142.06278h16.140652c1.337253 0 2.421098-1.084036 2.421098-2.421524v-16.143498c0-1.337489-1.083845-2.421525-2.421098-2.421525h-16.140652c-1.337253 0-2.421098 1.084036-2.421098 2.421525v16.143498c0 1.337488 1.083845 2.421524 2.421098 2.421524z" fill-opacity=".5"/><path d="m147.686964 45.2017937h16.140652c1.337253 0 2.421098-1.0840359 2.421098-2.4215246v-16.1434978c0-1.3373677-1.083845-2.4215247-2.421098-2.4215247h-16.140652c-1.337253 0-2.421098 1.084157-2.421098 2.4215247v16.1434978c0 1.3374887 1.083845 2.4215246 2.421098 2.4215246z" fill-opacity=".3"/><path d="m147.686964 20.9865471h16.140652c1.337253 0 2.421098-1.084157 2.421098-2.4215247v-16.14349774c0-1.33737175-1.083845-2.42152466-2.421098-2.42152466h-16.140652c-1.337253 0-2.421098 1.08415695-2.421098 2.42152466v16.14349774c0 1.3373677 1.083845 2.4215247 2.421098 2.4215247z"/><path d="m147.686964 93.632287h16.140652c1.337253 0 2.421098-1.0840359 2.421098-2.4215247v-16.1434977c0-1.3374888-1.083845-2.4215247-2.421098-2.4215247h-16.140652c-1.337253 0-2.421098 1.0840359-2.421098 2.4215247v16.1434977c0 1.3374888 1.083845 2.4215247 2.421098 2.4215247z" fill-opacity=".5"/><path d="m147.686964 69.4170404h16.140652c1.337253 0 2.421098-1.0840359 2.421098-2.4215247v-16.1434978c0-1.3374888-1.083845-2.4215246-2.421098-2.4215246h-16.140652c-1.337253 0-2.421098 1.0840358-2.421098 2.4215246v16.1434978c0 1.3374888 1.083845 2.4215247 2.421098 2.4215247z"/><path d="m147.686964 214.70852h16.140652c1.337253 0 2.421098-1.084036 2.421098-2.421524v-16.143498c0-1.337489-1.083845-2.421525-2.421098-2.421525h-16.140652c-1.337253 0-2.421098 1.084036-2.421098 2.421525v16.143498c0 1.337488 1.083845 2.421524 2.421098 2.421524zm0-24.215246h16.140652c1.337253 0 2.421098-1.084036 2.421098-2.421525v-16.143498c0-1.337489-1.083845-2.421525-2.421098-2.421525h-16.140652c-1.337253 0-2.421098 1.084036-2.421098 2.421525v16.143498c0 1.337489 1.083845 2.421525 2.421098 2.421525z" fill-opacity=".5"/><path d="m147.686964 263.139013h16.140652c1.337253 0 2.421098-1.084035 2.421098-2.421524v-16.143498c0-1.337489-1.083845-2.421525-2.421098-2.421525h-16.140652c-1.337253 0-2.421098 1.084036-2.421098 2.421525v16.143498c0 1.337489 1.083845 2.421524 2.421098 2.421524z" fill-opacity=".2"/><path d="m147.686964 238.923767h16.140652c1.337253 0 2.421098-1.084036 2.421098-2.421525v-16.143498c0-1.337488-1.083845-2.421524-2.421098-2.421524h-16.140652c-1.337253 0-2.421098 1.084036-2.421098 2.421524v16.143498c0 1.337489 1.083845 2.421525 2.421098 2.421525zm0 48.430493h16.140652c1.337253 0 2.421098-1.084036 2.421098-2.421525v-16.143497c0-1.337489-1.083845-2.421525-2.421098-2.421525h-16.140652c-1.337253 0-2.421098 1.084036-2.421098 2.421525v16.143497c0 1.337489 1.083845 2.421525 2.421098 2.421525z"/><path d="m147.686964 311.569507h16.140652c1.337253 0 2.421098-1.084036 2.421098-2.421525v-16.143498c0-1.337488-1.083845-2.421524-2.421098-2.421524h-16.140652c-1.337253 0-2.421098 1.084036-2.421098 2.421524v16.143498c0 1.337489 1.083845 2.421525 2.421098 2.421525zm653.696398-96.860987h16.140652c1.335639 0 2.421097-1.084036 2.421097-2.421524v-16.143498c0-1.337489-1.085458-2.421525-2.421097-2.421525h-16.140652c-1.335639 0-2.421098 1.084036-2.421098 2.421525v16.143498c0 1.337488 1.085459 2.421524 2.421098 2.421524z" fill-opacity=".3"/><path d="m817.524014 48.4304933h-16.140652c-1.335639 0-2.421098 1.0840358-2.421098 2.4215246v16.1434978c0 1.3374888 1.085459 2.4215247 2.421098 2.4215247h16.140652c1.335639 0 2.421097-1.0840359 2.421097-2.4215247v-16.1434978c0-1.3374888-1.085458-2.4215246-2.421097-2.4215246zm-16.140652 45.2017937h16.140652c1.335639 0 2.421097-1.0840359 2.421097-2.4215247v-16.1434977c0-1.3374888-1.085458-2.4215247-2.421097-2.4215247h-16.140652c-1.335639 0-2.421098 1.0840359-2.421098 2.4215247v16.1434977c0 1.3374888 1.085459 2.4215247 2.421098 2.4215247z" fill-opacity=".5"/><path d="m817.524014 24.2152466h-16.140652c-1.335639 0-2.421098 1.084157-2.421098 2.4215247v16.1434978c0 1.3374887 1.085459 2.4215246 2.421098 2.4215246h16.140652c1.335639 0 2.421097-1.0840359 2.421097-2.4215246v-16.1434978c0-1.3373677-1.085458-2.4215247-2.421097-2.4215247z"/><path d="m801.383362 117.847534h16.140652c1.335639 0 2.421097-1.084036 2.421097-2.421525v-16.1434978c0-1.3374888-1.085458-2.4215247-2.421097-2.4215247h-16.140652c-1.335639 0-2.421098 1.0840359-2.421098 2.4215247v16.1434978c0 1.337489 1.085459 2.421525 2.421098 2.421525z" fill-opacity=".7"/><path d="m801.383362 142.06278h16.140652c1.335639 0 2.421097-1.084036 2.421097-2.421524v-16.143498c0-1.337489-1.085458-2.421525-2.421097-2.421525h-16.140652c-1.335639 0-2.421098 1.084036-2.421098 2.421525v16.143498c0 1.337488 1.085459 2.421524 2.421098 2.421524z" fill-opacity=".2"/><path d="m801.383362 311.569507h16.140652c1.335639 0 2.421097-1.084036 2.421097-2.421525v-16.143498c0-1.337488-1.085458-2.421524-2.421097-2.421524h-16.140652c-1.335639 0-2.421098 1.084036-2.421098 2.421524v16.143498c0 1.337489 1.085459 2.421525 2.421098 2.421525zm0 48.430493h16.140652c1.335639 0 2.421097-1.084036 2.421097-2.421525v-16.143497c0-1.337489-1.085458-2.421525-2.421097-2.421525h-16.140652c-1.335639 0-2.421098 1.084036-2.421098 2.421525v16.143497c0 1.337489 1.085459 2.421525 2.421098 2.421525z"/><path d="m801.383362 335.784753h16.140652c1.335639 0 2.421097-1.084036 2.421097-2.421524v-16.143498c0-1.337489-1.085458-2.421525-2.421097-2.421525h-16.140652c-1.335639 0-2.421098 1.084036-2.421098 2.421525v16.143498c0 1.337488 1.085459 2.421524 2.421098 2.421524z" fill-opacity=".5"/><path d="m801.383362 263.139013h16.140652c1.335639 0 2.421097-1.084035 2.421097-2.421524v-16.143498c0-1.337489-1.085458-2.421525-2.421097-2.421525h-16.140652c-1.335639 0-2.421098 1.084036-2.421098 2.421525v16.143498c0 1.337489 1.085459 2.421524 2.421098 2.421524z"/><path d="m123.475986 287.35426h16.140652c1.337253 0 2.421098-1.084036 2.421098-2.421525v-16.143497c0-1.337489-1.083845-2.421525-2.421098-2.421525h-16.140652c-1.337253 0-2.421097 1.084036-2.421097 2.421525v16.143497c0 1.337489 1.083844 2.421525 2.421097 2.421525z" fill-opacity=".6"/><path d="m123.475986 238.923767h16.140652c1.337253 0 2.421098-1.084036 2.421098-2.421525v-16.143498c0-1.337488-1.083845-2.421524-2.421098-2.421524h-16.140652c-1.337253 0-2.421097 1.084036-2.421097 2.421524v16.143498c0 1.337489 1.083844 2.421525 2.421097 2.421525z"/><path d="m123.475986 166.278027h16.140652c1.337253 0 2.421098-1.084036 2.421098-2.421525v-16.143498c0-1.337488-1.083845-2.421524-2.421098-2.421524h-16.140652c-1.337253 0-2.421097 1.084036-2.421097 2.421524v16.143498c0 1.337489 1.083844 2.421525 2.421097 2.421525zm0-24.215247h16.140652c1.337253 0 2.421098-1.084036 2.421098-2.421524v-16.143498c0-1.337489-1.083845-2.421525-2.421098-2.421525h-16.140652c-1.337253 0-2.421097 1.084036-2.421097 2.421525v16.143498c0 1.337488 1.083844 2.421524 2.421097 2.421524z" fill-opacity=".5"/><path d="m123.475986 117.847534h16.140652c1.337253 0 2.421098-1.084036 2.421098-2.421525v-16.1434978c0-1.3374888-1.083845-2.4215247-2.421098-2.4215247h-16.140652c-1.337253 0-2.421097 1.0840359-2.421097 2.4215247v16.1434978c0 1.337489 1.083844 2.421525 2.421097 2.421525z"/><path d="m139.616638 72.6457399h-16.140652c-1.337253 0-2.421097 1.0840359-2.421097 2.4215247v16.1434977c0 1.3374888 1.083844 2.4215247 2.421097 2.4215247h16.140652c1.337253 0 2.421098-1.0840359 2.421098-2.4215247v-16.1434977c0-1.3374888-1.083845-2.4215247-2.421098-2.4215247z" fill-opacity=".7"/><path d="m825.59434 93.632287h16.140651c1.335639 0 2.421098-1.0840359 2.421098-2.4215247v-16.1434977c0-1.3374888-1.085459-2.4215247-2.421098-2.4215247h-16.140651c-1.335639 0-2.421098 1.0840359-2.421098 2.4215247v16.1434977c0 1.3374888 1.085459 2.4215247 2.421098 2.4215247z"/><path d="m841.734991 48.4304933h-16.140651c-1.335639 0-2.421098 1.0840358-2.421098 2.4215246v16.1434978c0 1.3374888 1.085459 2.4215247 2.421098 2.4215247h16.140651c1.335639 0 2.421098-1.0840359 2.421098-2.4215247v-16.1434978c0-1.3374888-1.085459-2.4215246-2.421098-2.4215246z" fill-opacity=".3"/><path d="m825.59434 117.847534h16.140651c1.335639 0 2.421098-1.084036 2.421098-2.421525v-16.1434978c0-1.3374888-1.085459-2.4215247-2.421098-2.4215247h-16.140651c-1.335639 0-2.421098 1.0840359-2.421098 2.4215247v16.1434978c0 1.337489 1.085459 2.421525 2.421098 2.421525zm0 96.860986h16.140651c1.335639 0 2.421098-1.084036 2.421098-2.421524v-16.143498c0-1.337489-1.085459-2.421525-2.421098-2.421525h-16.140651c-1.335639 0-2.421098 1.084036-2.421098 2.421525v16.143498c0 1.337488 1.085459 2.421524 2.421098 2.421524zm0-24.215246h16.140651c1.335639 0 2.421098-1.084036 2.421098-2.421525v-16.143498c0-1.337489-1.085459-2.421525-2.421098-2.421525h-16.140651c-1.335639 0-2.421098 1.084036-2.421098 2.421525v16.143498c0 1.337489 1.085459 2.421525 2.421098 2.421525z"/><path d="m825.59434 166.278027h16.140651c1.335639 0 2.421098-1.084036 2.421098-2.421525v-16.143498c0-1.337488-1.085459-2.421524-2.421098-2.421524h-16.140651c-1.335639 0-2.421098 1.084036-2.421098 2.421524v16.143498c0 1.337489 1.085459 2.421525 2.421098 2.421525zm0 169.506726h16.140651c1.335639 0 2.421098-1.084036 2.421098-2.421524v-16.143498c0-1.337489-1.085459-2.421525-2.421098-2.421525h-16.140651c-1.335639 0-2.421098 1.084036-2.421098 2.421525v16.143498c0 1.337488 1.085459 2.421524 2.421098 2.421524z" fill-opacity=".5"/><path d="m825.59434 311.569507h16.140651c1.335639 0 2.421098-1.084036 2.421098-2.421525v-16.143498c0-1.337488-1.085459-2.421524-2.421098-2.421524h-16.140651c-1.335639 0-2.421098 1.084036-2.421098 2.421524v16.143498c0 1.337489 1.085459 2.421525 2.421098 2.421525z" fill-opacity=".4"/><path d="m825.59434 287.35426h16.140651c1.335639 0 2.421098-1.084036 2.421098-2.421525v-16.143497c0-1.337489-1.085459-2.421525-2.421098-2.421525h-16.140651c-1.335639 0-2.421098 1.084036-2.421098 2.421525v16.143497c0 1.337489 1.085459 2.421525 2.421098 2.421525zm-726.3293314-217.9372196h16.1406514c1.337253 0 2.421098-1.0840359 2.421098-2.4215247v-16.1434978c0-1.3374888-1.083845-2.4215246-2.421098-2.4215246h-16.1406514c-1.337253 0-2.4210978 1.0840358-2.4210978 2.4215246v16.1434978c0 1.3374888 1.0838448 2.4215247 2.4210978 2.4215247zm0 72.6457396h16.1406514c1.337253 0 2.421098-1.084036 2.421098-2.421524v-16.143498c0-1.337489-1.083845-2.421525-2.421098-2.421525h-16.1406514c-1.337253 0-2.4210978 1.084036-2.4210978 2.421525v16.143498c0 1.337488 1.0838448 2.421524 2.4210978 2.421524z"/><path d="m99.2650086 117.847534h16.1406514c1.337253 0 2.421098-1.084036 2.421098-2.421525v-16.1434978c0-1.3374888-1.083845-2.4215247-2.421098-2.4215247h-16.1406514c-1.337253 0-2.4210978 1.0840359-2.4210978 2.4215247v16.1434978c0 1.337489 1.0838448 2.421525 2.4210978 2.421525z" fill-opacity=".5"/><path d="m99.2650086 238.923767h16.1406514c1.337253 0 2.421098-1.084036 2.421098-2.421525v-16.143498c0-1.337488-1.083845-2.421524-2.421098-2.421524h-16.1406514c-1.337253 0-2.4210978 1.084036-2.4210978 2.421524v16.143498c0 1.337489 1.0838448 2.421525 2.4210978 2.421525zm0 24.215246h16.1406514c1.337253 0 2.421098-1.084035 2.421098-2.421524v-16.143498c0-1.337489-1.083845-2.421525-2.421098-2.421525h-16.1406514c-1.337253 0-2.4210978 1.084036-2.4210978 2.421525v16.143498c0 1.337489 1.0838448 2.421524 2.4210978 2.421524zm0-48.430493h16.1406514c1.337253 0 2.421098-1.084036 2.421098-2.421524v-16.143498c0-1.337489-1.083845-2.421525-2.421098-2.421525h-16.1406514c-1.337253 0-2.4210978 1.084036-2.4210978 2.421525v16.143498c0 1.337488 1.0838448 2.421524 2.4210978 2.421524zm750.5403084-96.860986h16.140652c1.335639 0 2.421098-1.084036 2.421098-2.421525v-16.1434978c0-1.3374888-1.085459-2.4215247-2.421098-2.4215247h-16.140652c-1.335639 0-2.421097 1.0840359-2.421097 2.4215247v16.1434978c0 1.337489 1.085458 2.421525 2.421097 2.421525z"/><path d="m849.805317 93.632287h16.140652c1.335639 0 2.421098-1.0840359 2.421098-2.4215247v-16.1434977c0-1.3374888-1.085459-2.4215247-2.421098-2.4215247h-16.140652c-1.335639 0-2.421097 1.0840359-2.421097 2.4215247v16.1434977c0 1.3374888 1.085458 2.4215247 2.421097 2.4215247z" fill-opacity=".5"/><path d="m865.945969 48.4304933h-16.140652c-1.335639 0-2.421097 1.0840358-2.421097 2.4215246v16.1434978c0 1.3374888 1.085458 2.4215247 2.421097 2.4215247h16.140652c1.335639 0 2.421098-1.0840359 2.421098-2.4215247v-16.1434978c0-1.3374888-1.085459-2.4215246-2.421098-2.4215246zm-16.140652 93.6322867h16.140652c1.335639 0 2.421098-1.084036 2.421098-2.421524v-16.143498c0-1.337489-1.085459-2.421525-2.421098-2.421525h-16.140652c-1.335639 0-2.421097 1.084036-2.421097 2.421525v16.143498c0 1.337488 1.085458 2.421524 2.421097 2.421524zm0 48.430494h16.140652c1.335639 0 2.421098-1.084036 2.421098-2.421525v-16.143498c0-1.337489-1.085459-2.421525-2.421098-2.421525h-16.140652c-1.335639 0-2.421097 1.084036-2.421097 2.421525v16.143498c0 1.337489 1.085458 2.421525 2.421097 2.421525z"/><path d="m849.805317 238.923767h16.140652c1.335639 0 2.421098-1.084036 2.421098-2.421525v-16.143498c0-1.337488-1.085459-2.421524-2.421098-2.421524h-16.140652c-1.335639 0-2.421097 1.084036-2.421097 2.421524v16.143498c0 1.337489 1.085458 2.421525 2.421097 2.421525z" fill-opacity=".8"/><path d="m849.805317 214.70852h16.140652c1.335639 0 2.421098-1.084036 2.421098-2.421524v-16.143498c0-1.337489-1.085459-2.421525-2.421098-2.421525h-16.140652c-1.335639 0-2.421097 1.084036-2.421097 2.421525v16.143498c0 1.337488 1.085458 2.421524 2.421097 2.421524zm-774.7512861-121.076233h16.1406518c1.337253 0 2.4210977-1.0840359 2.4210977-2.4215247v-16.1434977c0-1.3374888-1.0838447-2.4215247-2.4210977-2.4215247h-16.1406518c-1.337253 0-2.4210978 1.0840359-2.4210978 2.4215247v16.1434977c0 1.3374888 1.0838448 2.4215247 2.4210978 2.4215247z"/><path d="m75.0540309 142.06278h16.1406518c1.337253 0 2.4210977-1.084036 2.4210977-2.421524v-16.143498c0-1.337489-1.0838447-2.421525-2.4210977-2.421525h-16.1406518c-1.337253 0-2.4210978 1.084036-2.4210978 2.421525v16.143498c0 1.337488 1.0838448 2.421524 2.4210978 2.421524z" fill-opacity=".3"/><path d="m75.0540309 166.278027h16.1406518c1.337253 0 2.4210977-1.084036 2.4210977-2.421525v-16.143498c0-1.337488-1.0838447-2.421524-2.4210977-2.421524h-16.1406518c-1.337253 0-2.4210978 1.084036-2.4210978 2.421524v16.143498c0 1.337489 1.0838448 2.421525 2.4210978 2.421525z"/><path d="m75.0540309 214.70852h16.1406518c1.337253 0 2.4210977-1.084036 2.4210977-2.421524v-16.143498c0-1.337489-1.0838447-2.421525-2.4210977-2.421525h-16.1406518c-1.337253 0-2.4210978 1.084036-2.4210978 2.421525v16.143498c0 1.337488 1.0838448 2.421524 2.4210978 2.421524z" fill-opacity=".5"/><path d="m75.0540309 190.493274h16.1406518c1.337253 0 2.4210977-1.084036 2.4210977-2.421525v-16.143498c0-1.337489-1.0838447-2.421525-2.4210977-2.421525h-16.1406518c-1.337253 0-2.4210978 1.084036-2.4210978 2.421525v16.143498c0 1.337489 1.0838448 2.421525 2.4210978 2.421525z"/><path d="m75.0540309 263.139013h16.1406518c1.337253 0 2.4210977-1.084035 2.4210977-2.421524v-16.143498c0-1.337489-1.0838447-2.421525-2.4210977-2.421525h-16.1406518c-1.337253 0-2.4210978 1.084036-2.4210978 2.421525v16.143498c0 1.337489 1.0838448 2.421524 2.4210978 2.421524z" fill-opacity=".2"/><path d="m75.0540309 238.923767h16.1406518c1.337253 0 2.4210977-1.084036 2.4210977-2.421525v-16.143498c0-1.337488-1.0838447-2.421524-2.4210977-2.421524h-16.1406518c-1.337253 0-2.4210978 1.084036-2.4210978 2.421524v16.143498c0 1.337489 1.0838448 2.421525 2.4210978 2.421525zm798.9622641-145.29148h16.140652c1.335639 0 2.421098-1.0840359 2.421098-2.4215247v-16.1434977c0-1.3374888-1.085459-2.4215247-2.421098-2.4215247h-16.140652c-1.335639 0-2.421098 1.0840359-2.421098 2.4215247v16.1434977c0 1.3374888 1.085459 2.4215247 2.421098 2.4215247zm0 121.076233h16.140652c1.335639 0 2.421098-1.084036 2.421098-2.421524v-16.143498c0-1.337489-1.085459-2.421525-2.421098-2.421525h-16.140652c-1.335639 0-2.421098 1.084036-2.421098 2.421525v16.143498c0 1.337488 1.085459 2.421524 2.421098 2.421524zm0-24.215246h16.140652c1.335639 0 2.421098-1.084036 2.421098-2.421525v-16.143498c0-1.337489-1.085459-2.421525-2.421098-2.421525h-16.140652c-1.335639 0-2.421098 1.084036-2.421098 2.421525v16.143498c0 1.337489 1.085459 2.421525 2.421098 2.421525z"/><path d="m874.016295 117.847534h16.140652c1.335639 0 2.421098-1.084036 2.421098-2.421525v-16.1434978c0-1.3374888-1.085459-2.4215247-2.421098-2.4215247h-16.140652c-1.335639 0-2.421098 1.0840359-2.421098 2.4215247v16.1434978c0 1.337489 1.085459 2.421525 2.421098 2.421525z" fill-opacity=".7"/><path d="m874.016295 166.278027h16.140652c1.335639 0 2.421098-1.084036 2.421098-2.421525v-16.143498c0-1.337488-1.085459-2.421524-2.421098-2.421524h-16.140652c-1.335639 0-2.421098 1.084036-2.421098 2.421524v16.143498c0 1.337489 1.085459 2.421525 2.421098 2.421525z"/><path d="m874.016295 142.06278h16.140652c1.335639 0 2.421098-1.084036 2.421098-2.421524v-16.143498c0-1.337489-1.085459-2.421525-2.421098-2.421525h-16.140652c-1.335639 0-2.421098 1.084036-2.421098 2.421525v16.143498c0 1.337488 1.085459 2.421524 2.421098 2.421524z" fill-opacity=".3"/><path d="m50.8430532 166.278027h16.1406518c1.337253 0 2.4210977-1.084036 2.4210977-2.421525v-16.143498c0-1.337488-1.0838447-2.421524-2.4210977-2.421524h-16.1406518c-1.337253 0-2.4210978 1.084036-2.4210978 2.421524v16.143498c0 1.337489 1.0838448 2.421525 2.4210978 2.421525zm847.3842198-.403588h16.140652c1.335638 0 2.421097-1.084035 2.421097-2.421524v-16.143498c0-1.337489-1.085459-2.421525-2.421097-2.421525h-16.140652c-1.335639 0-2.421098 1.084036-2.421098 2.421525v16.143498c0 1.337489 1.085459 2.421524 2.421098 2.421524z"/><path d="m898.227273 117.847534h16.140652c1.335638 0 2.421097-1.084036 2.421097-2.421525v-16.1434978c0-1.3374888-1.085459-2.4215247-2.421097-2.4215247h-16.140652c-1.335639 0-2.421098 1.0840359-2.421098 2.4215247v16.1434978c0 1.337489 1.085459 2.421525 2.421098 2.421525z" fill-opacity=".5"/><path d="m26.6320755 166.278027h16.1406518c1.337253 0 2.4210977-1.084036 2.4210977-2.421525v-16.143498c0-1.337488-1.0838447-2.421524-2.4210977-2.421524h-16.1406518c-1.337132 0-2.4210978 1.084036-2.4210978 2.421524v16.143498c0 1.337489 1.0839658 2.421525 2.4210978 2.421525zm0 24.215247h16.1406518c1.337253 0 2.4210977-1.084036 2.4210977-2.421525v-16.143498c0-1.337489-1.0838447-2.421525-2.4210977-2.421525h-16.1406518c-1.337132 0-2.4210978 1.084036-2.4210978 2.421525v16.143498c0 1.337489 1.0839658 2.421525 2.4210978 2.421525zm0 24.215246h16.1406518c1.337253 0 2.4210977-1.084036 2.4210977-2.421524v-16.143498c0-1.337489-1.0838447-2.421525-2.4210977-2.421525h-16.1406518c-1.337132 0-2.4210978 1.084036-2.4210978 2.421525v16.143498c0 1.337488 1.0839658 2.421524 2.4210978 2.421524z"/><path d="m922.43825 141.659193h16.140652c1.335639 0 2.421098-1.084036 2.421098-2.421525v-16.143498c0-1.337488-1.085459-2.421524-2.421098-2.421524h-16.140652c-1.335639 0-2.421097 1.084036-2.421097 2.421524v16.143498c0 1.337489 1.085458 2.421525 2.421097 2.421525z" fill-opacity=".2"/><path d="m922.43825 165.874439h16.140652c1.335639 0 2.421098-1.084035 2.421098-2.421524v-16.143498c0-1.337489-1.085459-2.421525-2.421098-2.421525h-16.140652c-1.335639 0-2.421097 1.084036-2.421097 2.421525v16.143498c0 1.337489 1.085458 2.421524 2.421097 2.421524z"/><path d="m2.42109777 190.493274h16.14065183c1.3371319 0 2.4210977-1.084036 2.4210977-2.421525v-16.143498c0-1.337489-1.0839658-2.421525-2.4210977-2.421525h-16.14065183c-1.33713598 0-2.42109777 1.084036-2.42109777 2.421525v16.143498c0 1.337489 1.08396179 2.421525 2.42109777 2.421525z" fill-opacity=".3"/></g><use fill="url(#a)" xlink:href="#c"/><use fill="url(#b)" xlink:href="#c"/></g></svg>